<svg id="Capa_1" enable-background="new 0 0 497 497" height="512" viewBox="0 0 497 497" width="512" xmlns="http://www.w3.org/2000/svg"><g><path d="m444.86 207.86-7.83-1.03-45 75 74.97 30.42h22.5c4.142 0 7.5-3.358 7.5-7.5v-37.41c0-30.1-22.3-55.54-52.14-59.48z" fill="#ffc43b"/><path d="m459.56 247.79c4.8 5.47 7.44 12.49 7.44 19.77v44.69h-339.5l-127.5-30v-5.39c0-20.06 10.03-38.79 26.72-49.92l63.11-42.07c14.78-9.86 32.15-15.12 49.92-15.12h27.63c4.142 0 7.5 3.358 7.5 7.5v52.5h32.996c20.065 0 38.802-10.027 49.934-26.72l9.598-14.394c1.586-2.379 4.388-3.649 7.223-3.274l162.399 21.468c0 9.84 3.58 19.33 10.06 26.73z" fill="#f02e0e"/><path d="m0 282.25v22.5c0 4.142 3.358 7.5 7.5 7.5h120v-30z" fill="#d40000"/><path d="m384.5 244.75v105c28.995 0 52.5-23.505 52.5-52.5s-23.505-52.5-52.5-52.5z" fill="#343840"/><path d="m407 297.25c0-28.995-10.074-52.5-22.5-52.5-28.995 0-52.5 23.505-52.5 52.5s23.505 52.5 52.5 52.5c12.426 0 22.5-23.505 22.5-52.5z" fill="#41494e"/><circle cx="384.5" cy="297.25" fill="#c9f8ff" r="22.5"/><path d="m127.5 244.75v105c28.995 0 52.5-23.505 52.5-52.5s-23.505-52.5-52.5-52.5z" fill="#343840"/><path d="m150 297.25c0-28.995-10.074-52.5-22.5-52.5-28.995 0-52.5 23.505-52.5 52.5s23.505 52.5 52.5 52.5c12.427 0 22.5-23.505 22.5-52.5z" fill="#41494e"/><circle cx="127.5" cy="297.25" fill="#c9f8ff" r="22.5"/><path d="m232.844 193.892c-1.43 0-2.875-.408-4.153-1.261-3.447-2.297-4.378-6.954-2.08-10.4l21.094-31.641c2.297-3.447 6.953-4.377 10.4-2.08s4.378 6.954 2.08 10.4l-21.094 31.641c-1.445 2.169-3.824 3.341-6.247 3.341z" fill="#41494e"/><g fill="#d40000"><path d="m302 289.75c-4.142 0-7.5-3.358-7.5-7.5v-22.5c0-4.142 3.358-7.5 7.5-7.5s7.5 3.358 7.5 7.5v22.5c0 4.142-3.358 7.5-7.5 7.5z"/><path d="m272 289.75c-4.142 0-7.5-3.358-7.5-7.5v-22.5c0-4.142 3.358-7.5 7.5-7.5s7.5 3.358 7.5 7.5v22.5c0 4.142-3.358 7.5-7.5 7.5z"/><path d="m242 289.75c-4.142 0-7.5-3.358-7.5-7.5v-22.5c0-4.142 3.358-7.5 7.5-7.5s7.5 3.358 7.5 7.5v22.5c0 4.142-3.358 7.5-7.5 7.5z"/></g></g></svg>