<?xml version="1.0" encoding="iso-8859-1"?>
<!-- Generator: Adobe Illustrator 19.0.0, SVG Export Plug-In . SVG Version: 6.00 Build 0)  -->
<svg version="1.1" id="Capa_1" xmlns="http://www.w3.org/2000/svg" xmlns:xlink="http://www.w3.org/1999/xlink" x="0px" y="0px"
	 viewBox="0 0 464 464" style="enable-background:new 0 0 464 464;" xml:space="preserve">
<g>
	<path style="fill:#FADBB7;" d="M360,344h32v104h-32V344z"/>
	<path style="fill:#FADBB7;" d="M104,312h32v136h-32V312z"/>
	<path style="fill:#FADBB7;" d="M336,192h63.032c10.865,0,21.285,4.317,28.968,12s18.103,12,28.968,12H464c0,17.673-14.327,32-32,32
		h-7.032c-10.865,0-21.285-4.317-28.968-12s-18.103-12-28.968-12H336V192z"/>
	<path style="fill:#FADBB7;" d="M16,176v40c17.673,0,32-14.327,32-32v-8H16z"/>
</g>
<path style="fill:#763A02;" d="M144,64c0-17.673,14.327-32,32-32h9.376c8.837,0,16-7.163,16-16s-7.163-16-16-16H176
	c-35.346,0-64,28.654-64,64v16h32V64z"/>
<path style="fill:#FCE9CC;" d="M344,192H224c-44.183,0-80-35.817-80-80h8c17.673,0,32-14.327,32-32h-72L0,120v56h80v94.864
	c0,21.217,8.429,41.565,23.432,56.568l9.136,9.136C127.571,351.571,136,371.919,136,393.136V464h32v-88c0-8.837,7.163-16,16-16h192
	c8.837,0,16,7.163,16,16v88h32V272C424,227.817,388.183,192,344,192z"/>
<g>
	<path style="fill:#763A02;" d="M0,136h32v16H0V136z"/>
	<path style="fill:#763A02;" d="M80,120L80,120c4.418,0,8,3.582,8,8l0,0c0,4.418-3.582,8-8,8l0,0c-4.418,0-8-3.582-8-8l0,0
		C72,123.582,75.582,120,80,120z"/>
</g>
<g>
</g>
<g>
</g>
<g>
</g>
<g>
</g>
<g>
</g>
<g>
</g>
<g>
</g>
<g>
</g>
<g>
</g>
<g>
</g>
<g>
</g>
<g>
</g>
<g>
</g>
<g>
</g>
<g>
</g>
</svg>
